<?xml version="1.0" encoding="UTF-8"?>
<svg id="Calque_1" data-name="Calque 1" xmlns="http://www.w3.org/2000/svg" viewBox="0 0 755.72 437.72">
  <defs>
    <style>
      .cls-1 {
        fill: none;
        stroke: #fff;
      }

      .cls-1, .cls-2, .cls-3, .cls-4, .cls-5 {
        stroke-miterlimit: 10;
      }

      .cls-2, .cls-3, .cls-4, .cls-5 {
        stroke: #000;
      }

      .cls-6, .cls-7, .cls-8 {
        stroke-width: 0px;
      }

      .cls-7, .cls-3 {
        fill: #ff7bac;
      }

      .cls-8, .cls-4 {
        fill: #fff;
      }

      .cls-5 {
        opacity: .37;
      }
    </style>
  </defs>
  <ellipse class="cls-5" cx="371.5" cy="393.72" rx="371" ry="43.5"/>
  <g>
    <path class="cls-8" d="m684.44,33.72l17.73,13.98c47.69,37.61,40.69,108.22-13.59,136.96h0c-29.05,15.38-40.46,49.17-26.15,77.4l12.17,24c5.58,11.01,1.34,24.19-9.8,30.48l-87.13,49.18"/>
    <path class="cls-6" d="m685.3,32.62c10.07-5.35,21.8-8.88,30.92-3.13.86.63,4.2,3.06,5.18,3.81,23.41,17.92,36.84,48.56,33.93,78-2.49,30.85-20.07,59.33-44.76,77.49-4.52,3.37-9.51,6.34-14.47,8.97-1.09.61-3.06,1.75-4.18,2.37-6.01,3.65-10.96,8.74-14.61,14.53-7.76,12.18-8.14,27.88-1.56,40.62,3.44,6.72,8.86,17.07,12.32,23.85,9.47,18.38,2.21,40.65-15.67,50.66-26.97,15.14-54.73,29.97-82.35,43.89-3.87.99-7.77-2.42-10.88-5.3,0,0-2.98-5.28-2.98-5.28-.77-3.11-.95-5.58-.69-8.22.26-1.87.88-3.1,1.78-3.83,1.92-1.26,3.89-2.43,5.83-3.65,24.16-15.06,49.13-29.89,73.88-43.94,3.93-2.13,6.11-6.44,4.05-10.61-3.61-7.29-8.94-17.79-12.41-25.04-13.7-28.32-6.95-61.81,15.43-83.57,1.02-.94,3.71-3.32,4.76-4.28,2.22-1.76,4.49-3.47,6.83-5.06,3.68-2.3,8.12-4.73,11.67-7.18,1.86-1.22,3.96-2.88,5.71-4.26,17.04-14.13,23.69-35.52,18.64-56.93-2.7-11.14-7.9-21.4-14.76-30.42-1.95-2.63-4.2-5.22-6.44-7.64,0,0-3.94-4.06-3.94-4.06-1.54-1.74-2.74-3.93-3.6-6.54-2.11-7.34-1.64-14.11.64-23.02,0,0,1.74-2.2,1.74-2.2h0Z"/>
  </g>
  <path class="cls-2" d="m598.67,255.37v105.06c0,10.1-8.19,18.29-18.29,18.29H116.93c-1.73,0-3.13-1.4-3.13-3.13l-.3-309.37v-3.17c0-3.82.97-7.58,2.83-10.92l2.17-3.91,13.55-23.12,12.18-21.09c2.7-4.68,9.46-4.68,12.16,0l12.17,21.09.68,1.17c.73,1.27,2.24,1.85,3.64,1.42,18.33-5.65,40.08-9.68,64.62-9.47,23.17.2,43.72,4.14,61.18,9.54,1.4.43,2.91-.15,3.64-1.41l.72-1.24,12.17-21.09c2.7-4.68,9.46-4.68,12.16,0l12.18,21.09,14.14,24.49c2.49,4.32,3.91,9.18,4.13,14.16l.67,15.47,1.41,49.29c.05,1.76,1.54,3.13,3.3,3.04l105.71-5.82c.07,0,.14,0,.21,0,71.55.06,129.55,58.08,129.55,129.65Z"/>
  <g>
    <path class="cls-7" d="m297.19,52.22l12.23-21.18c2.55-4.42,7.12-7.06,12.23-7.06s9.67,2.64,12.23,7.06l12.23,21.18h-48.9Z"/>
    <path class="cls-6" d="m321.64,24.49c4.92,0,9.33,2.55,11.79,6.81l11.79,20.43h-47.17l11.79-20.43c2.46-4.26,6.87-6.81,11.79-6.81m0-1c-4.92,0-9.85,2.44-12.66,7.31h0s-12.66,21.93-12.66,21.93h50.63l-12.66-21.93h0c-2.81-4.87-7.74-7.31-12.66-7.31h0Z"/>
  </g>
  <g>
    <path class="cls-7" d="m126.19,48.22l12.23-21.18c2.55-4.42,7.12-7.06,12.23-7.06s9.67,2.64,12.23,7.06l12.23,21.18h-48.9Z"/>
    <path class="cls-6" d="m150.64,20.49c4.92,0,9.33,2.55,11.79,6.81l11.79,20.43h-47.17l11.79-20.43c2.46-4.26,6.87-6.81,11.79-6.81m0-1c-4.92,0-9.85,2.44-12.66,7.31h0s-12.66,21.93-12.66,21.93h50.63l-12.66-21.93h0c-2.81-4.87-7.74-7.31-12.66-7.31h0Z"/>
  </g>
  <g>
    <g>
      <g>
        <circle class="cls-8" cx="190.5" cy="92.22" r="33"/>
        <path class="cls-6" d="m190.5,59.72c17.92,0,32.5,14.58,32.5,32.5s-14.58,32.5-32.5,32.5-32.5-14.58-32.5-32.5,14.58-32.5,32.5-32.5m0-1c-18.5,0-33.5,15-33.5,33.5s15,33.5,33.5,33.5,33.5-15,33.5-33.5-15-33.5-33.5-33.5h0Z"/>
      </g>
      <g>
        <circle class="cls-6" cx="190.5" cy="92.22" r="20"/>
        <path class="cls-6" d="m190.5,72.72c10.75,0,19.5,8.75,19.5,19.5s-8.75,19.5-19.5,19.5-19.5-8.75-19.5-19.5,8.75-19.5,19.5-19.5m0-1c-11.32,0-20.5,9.18-20.5,20.5s9.18,20.5,20.5,20.5,20.5-9.18,20.5-20.5-9.18-20.5-20.5-20.5h0Z"/>
      </g>
      <g>
        <circle class="cls-8" cx="197" cy="80.72" r="11.5"/>
        <path class="cls-6" d="m197,69.72c6.07,0,11,4.93,11,11s-4.93,11-11,11-11-4.93-11-11,4.93-11,11-11m0-1c-6.63,0-12,5.37-12,12s5.37,12,12,12,12-5.37,12-12-5.37-12-12-12h0Z"/>
      </g>
      <g>
        <path class="cls-8" d="m178.62,107.22c-3.24,0-5.88-3.39-5.88-7.55s2.64-7.55,5.88-7.55,5.88,3.39,5.88,7.55-2.64,7.55-5.88,7.55Z"/>
        <path class="cls-6" d="m178.62,92.61c2.97,0,5.38,3.16,5.38,7.05s-2.41,7.05-5.38,7.05-5.38-3.16-5.38-7.05,2.41-7.05,5.38-7.05m0-1c-3.52,0-6.38,3.61-6.38,8.05s2.86,8.05,6.38,8.05,6.38-3.61,6.38-8.05-2.86-8.05-6.38-8.05h0Z"/>
      </g>
    </g>
    <g>
      <g>
        <path class="cls-8" d="m283.27,125.61c-.65,0-1.3-.02-1.95-.06-8.8-.51-16.87-4.42-22.73-11-5.86-6.58-8.81-15.06-8.29-23.86,1.01-17.43,15.47-31.08,32.91-31.08.64,0,1.3.02,1.95.06,18.17,1.06,32.08,16.7,31.03,34.86-1.01,17.43-15.47,31.08-32.91,31.08h0Z"/>
        <path class="cls-6" d="m283.21,60.11c.64,0,1.28.02,1.92.06,17.89,1.04,31.6,16.44,30.56,34.33-1,17.17-15.24,30.61-32.41,30.61-.64,0-1.28-.02-1.92-.06-17.89-1.04-31.6-16.44-30.56-34.33,1-17.17,15.24-30.61,32.41-30.61m0-1c-17.61,0-32.38,13.75-33.41,31.55-1.07,18.47,13.03,34.31,31.5,35.39.66.04,1.32.06,1.98.06,17.61,0,32.38-13.75,33.41-31.55,1.07-18.47-13.03-34.31-31.5-35.39-.66-.04-1.32-.06-1.98-.06h0Z"/>
      </g>
      <g>
        <path class="cls-6" d="m283.26,112.61c-.39,0-.79-.01-1.18-.03-5.33-.31-10.23-2.68-13.78-6.67-3.55-3.99-5.34-9.13-5.03-14.46.61-10.56,9.38-18.84,19.95-18.84.39,0,.79.01,1.18.03,11.01.64,19.44,10.12,18.8,21.13-.61,10.56-9.38,18.84-19.95,18.84,0,0,0,0,0,0Z"/>
        <path class="cls-6" d="m283.22,73.11c.38,0,.77.01,1.15.03,5.2.3,9.97,2.61,13.43,6.5,3.46,3.89,5.2,8.9,4.9,14.1-.6,10.3-9.14,18.37-19.45,18.37-.38,0-.77-.01-1.15-.03-5.2-.3-9.97-2.61-13.43-6.5-3.46-3.89-5.2-8.9-4.9-14.1.6-10.3,9.14-18.37,19.45-18.37m0-1c-10.78,0-19.81,8.41-20.45,19.31-.66,11.3,7.97,21,19.27,21.66.4.02.81.04,1.21.04,10.78,0,19.81-8.41,20.45-19.31.66-11.3-7.97-21-19.27-21.66-.4-.02-.81-.04-1.21-.04h0Z"/>
      </g>
      <g>
        <path class="cls-8" d="m277.43,92.25c-.23,0-.45,0-.68-.02-3.07-.18-5.88-1.54-7.92-3.83-2.04-2.29-3.07-5.25-2.89-8.31.35-6.07,5.39-10.83,11.47-10.83.22,0,.45,0,.68.02,3.07.18,5.88,1.54,7.92,3.84,2.04,2.29,3.07,5.25,2.89,8.31-.35,6.07-5.39,10.83-11.47,10.83,0,0,0,0,0,0Z"/>
        <path class="cls-6" d="m277.41,69.75c.22,0,.43,0,.65.02,6.06.35,10.69,5.57,10.34,11.62-.34,5.81-5.16,10.36-10.97,10.36-.22,0-.43,0-.65-.02-6.06-.35-10.69-5.57-10.34-11.62.34-5.81,5.16-10.36,10.97-10.36m0-1c-6.31,0-11.6,4.92-11.97,11.3-.39,6.62,4.67,12.29,11.28,12.68.24.01.47.02.71.02,6.31,0,11.6-4.92,11.97-11.3.39-6.62-4.67-12.29-11.28-12.68-.24-.01-.47-.02-.71-.02h0Z"/>
      </g>
      <g>
        <path class="cls-8" d="m294.23,108.28c-1.55-.09-2.96-.94-3.99-2.41-1.05-1.5-1.56-3.44-1.44-5.48.24-4.04,2.89-7.21,6.04-7.21.09,0,.18,0,.27,0,1.55.09,2.96.94,3.99,2.41,1.05,1.5,1.56,3.44,1.44,5.48-.24,4.04-2.89,7.21-6.04,7.21,0,0-.18,0-.27,0Z"/>
        <path class="cls-6" d="m294.84,93.69c.08,0,.16,0,.24,0,2.96.17,5.19,3.47,4.96,7.36-.22,3.78-2.65,6.74-5.54,6.74-.08,0-.16,0-.24,0-1.39-.08-2.67-.86-3.61-2.19-.99-1.4-1.47-3.24-1.36-5.16.22-3.78,2.65-6.74,5.54-6.74m0-1c-3.39,0-6.29,3.36-6.54,7.68-.26,4.44,2.38,8.21,5.9,8.41.1,0,.2,0,.3,0,3.39,0,6.29-3.36,6.54-7.68.26-4.44-2.38-8.21-5.9-8.41-.1,0-.2,0-.3,0h0Z"/>
      </g>
    </g>
    <path class="cls-4" d="m259.04,134.24c-9.24-.4-17.36,4.54-21.54,11.99-4.18-7.45-12.3-12.39-21.54-11.99-11.89.51-21.67,10.1-22.41,21.98-.85,13.66,9.98,25,23.45,25,8.81,0,16.48-4.85,20.5-12.01,4.02,7.17,11.69,12.01,20.5,12.01,13.48,0,24.3-11.34,23.45-25-.74-11.87-10.53-21.46-22.41-21.98Z"/>
    <path class="cls-3" d="m242.6,153.85c-2.21,3.83-7.74,3.83-9.95,0l-3.18-5.5-3.18-5.5c-2.21-3.83.55-8.62,4.98-8.62h6.35s6.35,0,6.35,0c4.42,0,7.19,4.79,4.98,8.62l-3.18,5.5-3.18,5.5Z"/>
  </g>
  <line class="cls-1" x1="275.55" y1="156.52" x2="317.63" y2="154.92"/>
  <line class="cls-1" x1="167.68" y1="136.35" x2="206.68" y2="148.35"/>
  <line class="cls-1" x1="169.61" y1="178.6" x2="204.71" y2="160.78"/>
  <line class="cls-1" x1="273.66" y1="163.43" x2="313.5" y2="175.22"/>
  <line class="cls-1" x1="275.08" y1="144.44" x2="314.08" y2="133.44"/>
  <line class="cls-1" x1="164.5" y1="157.22" x2="203.75" y2="156.27"/>
  <path class="cls-4" d="m337.01,333.72c0,16.06-3.44,31.3-9.6,45h-192.62c-6.17-13.7-9.61-28.94-9.61-45,0-59.65,47.42-108,105.91-108s105.92,48.35,105.92,108Z"/>
  <path class="cls-4" d="m159.49,379.22h-67.98c.13-16.34,7.02-29.5,15.49-29.5,3.58,0,6.88,2.36,9.5,6.3,2.62-3.94,5.92-6.3,9.5-6.3,3.36,0,6.46,2.07,9,5.58,2.54-3.51,5.64-5.58,9-5.58,8.47,0,15.36,13.16,15.49,29.5Z"/>
  <path class="cls-4" d="m364.56,379.22h-67.98c.19-16.25,7.04-29.3,15.49-29.3,3.58,0,6.87,2.35,9.5,6.3,2.62-3.95,5.91-6.3,9.5-6.3,3.35,0,6.46,2.07,9,5.58,2.53-3.51,5.64-5.58,9-5.58,8.44,0,15.3,13.05,15.49,29.3Z"/>
</svg>